# xmcd
#
# Track frame offsets:
#	150
#	19176
#	38100
#	53913
#	68726
#	83799
#	104579
#	120150
#	142852
#	165175
#	182416
#	198365
#	212042
#	223400
#	241570
#	256189
#	274802
#
# Disc length: 4201 seconds
# Revision: 0
# Processed by: cddbd v1.5.2PL0 Copyright (c) Steve Scherf et al.
# Submitted via: dBpowerAMP V12.0
#
DISCID=e2106711
DTITLE=Hey Gringo - Live from the Vault
DYEAR=2006
DGENRE=Blues
TTITLE0=Play Something We Know
TTITLE1=Head, Heart, Hands and Feet
TTITLE2=Get the Funk Out
TTITLE3=I've Been Gone
TTITLE4=Live and Learn
TTITLE5=Down the Track
TTITLE6=Take Me as I Am
TTITLE7=Life Is a Mystery
TTITLE8=Truck
TTITLE9=Limbo Man
TTITLE10=I Ain't Gonna Be Your Fool No More
TTITLE11=What's a Man Gotta Do?
TTITLE12=Seen It All Before
TTITLE13=Queensland
TTITLE14=Walking Back to You
TTITLE15=Let's Work Together
TTITLE16=I Can't Say No
EXTD=
EXTT0=
EXTT1=
EXTT2=
EXTT3=
EXTT4=
EXTT5=
EXTT6=
EXTT7=
EXTT8=
EXTT9=
EXTT10=
EXTT11=
EXTT12=
EXTT13=
EXTT14=
EXTT15=
EXTT16=
PLAYORDER=
